<?xml version="1.0" standalone="no"?>
<!DOCTYPE svg PUBLIC "-//W3C//DTD SVG 20010904//EN"
 "http://www.w3.org/TR/2001/REC-SVG-20010904/DTD/svg10.dtd">
<svg version="1.0" xmlns="http://www.w3.org/2000/svg"
 width="512.000000pt" height="512.000000pt" viewBox="0 0 512.000000 512.000000"
 preserveAspectRatio="xMidYMid meet">
<metadata>
Created by potrace 1.14, written by Peter Selinger 2001-2017
</metadata>
<g transform="translate(0.000000,512.000000) scale(0.100000,-0.100000)"
fill="#000000" stroke="none">
<path d="M2375 3650 l-190 -190 45 -45 46 -45 92 86 c51 47 92 84 92 81 0 -2
-25 -58 -55 -122 l-56 -118 32 -33 31 -32 96 45 c154 72 155 72 59 -24 l-87
-89 50 -49 50 -50 192 193 193 192 -60 60 c-33 33 -64 60 -70 60 -5 0 -67 -27
-137 -59 -71 -33 -128 -58 -128 -55 0 2 29 62 64 133 l65 128 -62 61 c-35 34
-65 62 -67 62 -3 0 -91 -85 -195 -190z"/>
<path d="M2106 3391 l-57 -58 29 -100 29 -101 -81 30 c-45 17 -89 33 -99 36
-13 3 -34 -11 -68 -44 -27 -26 -49 -52 -49 -56 0 -4 73 -31 163 -59 157 -50
164 -54 222 -108 33 -31 72 -67 88 -81 l27 -24 50 49 50 49 -75 76 -74 75 -45
183 c-24 101 -46 185 -48 187 -2 3 -30 -22 -62 -54z"/>
<path d="M2856 3161 l-190 -190 136 -137 135 -137 44 41 44 41 -85 85 -84 86
34 35 c19 19 39 35 46 35 7 0 36 -27 65 -60 29 -33 57 -60 63 -60 7 0 29 17
50 39 l38 39 -66 69 -65 69 27 27 27 27 85 -85 86 -85 38 39 39 40 -128 135
c-71 75 -133 136 -139 136 -6 0 -96 -85 -200 -189z"/>
<path d="M1706 2985 c-56 -20 -105 -63 -140 -125 -28 -49 -31 -64 -31 -135 0
-89 12 -119 72 -186 110 -121 279 -124 402 -6 59 57 81 107 81 187 0 116 -76
230 -177 264 -57 19 -154 20 -207 1z m132 -129 c59 -31 122 -121 122 -174 0
-50 -54 -102 -107 -102 -67 0 -154 69 -183 145 -25 66 31 145 101 145 22 0 52
-6 67 -14z"/>
<path d="M3208 2803 l-188 -187 52 -53 52 -53 98 97 c54 54 98 93 98 88 -1 -6
-16 -77 -34 -160 l-33 -150 50 -52 c28 -29 54 -50 58 -45 3 4 23 59 42 122
l36 115 54 -3 c65 -4 105 13 141 60 31 42 40 78 31 126 -5 30 -30 60 -128 160
-66 67 -125 122 -130 122 -6 0 -95 -84 -199 -187z m270 -36 c46 -47 52 -77 22
-107 -36 -36 -65 -27 -124 38 l-30 32 39 40 c22 22 42 40 45 40 3 0 25 -19 48
-43z"/>
<path d="M2315 2712 c-132 -131 -510 -505 -840 -830 l-599 -592 1674 0 1675 0
-830 830 c-456 457 -832 830 -835 830 -3 0 -113 -107 -245 -238z"/>
<path d="M1310 2600 c-41 -26 -230 -210 -230 -225 0 -6 84 -95 188 -198 l187
-187 53 53 52 53 -36 34 c-20 19 -62 65 -94 101 l-59 66 142 -39 c78 -21 149
-38 157 -38 18 1 117 86 109 95 -3 3 -57 23 -120 44 l-114 38 -6 72 c-5 66 -8
75 -42 108 -32 32 -43 37 -94 40 -46 3 -65 0 -93 -17z m104 -142 c25 -35 19
-61 -24 -103 l-40 -39 -46 46 -46 45 47 37 c55 41 87 46 109 14z"/>
<path d="M3615 2400 l-190 -190 133 -132 132 -133 47 48 48 47 -80 80 -80 80
145 145 144 145 -49 50 c-27 27 -52 50 -55 50 -3 0 -91 -86 -195 -190z"/>
<path d="M880 2193 l-131 -128 193 -193 193 -192 135 135 134 135 -34 35 c-19
19 -39 35 -45 35 -6 0 -46 -36 -90 -80 l-79 -80 -38 37 -38 37 67 68 68 68
-43 42 -42 43 -65 -65 -65 -65 -33 33 -32 33 82 78 81 78 -37 37 c-20 20 -40
36 -43 36 -4 0 -66 -57 -138 -127z"/>
<path d="M3945 2070 l-190 -190 53 -52 52 -53 192 192 193 193 -50 50 c-27 27
-52 50 -55 50 -3 0 -91 -85 -195 -190z"/>
<path d="M4125 1888 c-102 -99 -185 -186 -185 -192 0 -7 19 -31 43 -54 l43
-42 119 120 c65 66 120 118 122 116 2 -2 -17 -90 -43 -196 l-46 -192 61 -62
61 -61 192 193 193 192 -48 47 -47 48 -121 -120 c-67 -66 -118 -111 -115 -100
3 11 26 96 52 188 l47 168 -64 65 c-35 35 -67 64 -72 64 -4 0 -91 -82 -192
-182z"/>
<path d="M486 1811 l-49 -50 170 -178 c94 -98 179 -185 189 -194 18 -16 26
-10 151 110 l132 126 -44 50 -44 50 -80 -80 -81 -80 -148 148 -147 147 -49
-49z"/>
</g>
</svg>
